REM MD5 bf6018a6d94d84a0680ac4346367e04f
FILE "SuperLite 1500 Series - Ano Ko Doko no Ko - Endless Season (Japan).bin" BINARY
  TRACK 01 MODE2/2352
    INDEX 01 00:00:00
  TRACK 02 AUDIO
    INDEX 00 48:39:59
    INDEX 01 48:41:59
  TRACK 03 AUDIO
    INDEX 00 49:07:14
    INDEX 01 49:09:14
  TRACK 04 AUDIO
    INDEX 00 53:17:19
    INDEX 01 53:19:19
  TRACK 05 AUDIO
    INDEX 00 58:13:09
    INDEX 01 58:15:09
  TRACK 06 AUDIO
    INDEX 00 61:03:70
    INDEX 01 61:05:70
REM LEADOUT 64:26:15
